#define Image_peace_width 84
#define Image_peace_height 48
static const unsigned char Image_peace_bits[] = {
   0x00, 0x00, 0x00, 0x00, 0xe0, 0x7f, 0x00, 0x00, 0x00, 0x00, 0x00, 0x00,
   0x00, 0x00, 0x00, 0xfc, 0xff, 0x03, 0x00, 0x00, 0x00, 0x00, 0x00, 0x00,
   0x00, 0x80, 0x3f, 0xc0, 0x1f, 0x00, 0x00, 0x00, 0x00, 0x00, 0x00, 0x00,
   0xc0, 0x07, 0x00, 0x3c, 0x00, 0x00, 0x00, 0x00, 0x00, 0x00, 0x00, 0xf0,
   0x00, 0x00, 0xf0, 0x00, 0x00, 0x00, 0x00, 0x00, 0x00, 0x00, 0x38, 0x00,
   0x00, 0xc0, 0x01, 0x00, 0x00, 0x00, 0x00, 0x00, 0x00, 0x1c, 0x00, 0x00,
   0x80, 0x03, 0x00, 0x00, 0x00, 0x00, 0x00, 0x00, 0x0e, 0xf0, 0xf0, 0x00,
   0x07, 0x00, 0x00, 0x00, 0x00, 0x00, 0x00, 0x03, 0xfe, 0xf0, 0x07, 0x0c,
   0x00, 0x00, 0x00, 0x00, 0x00, 0x80, 0x03, 0xff, 0xf0, 0x0f, 0x18, 0x00,
   0x00, 0x00, 0x00, 0x00, 0xc0, 0x81, 0xff, 0xf0, 0x3f, 0x38, 0x00, 0x00,
   0x00, 0x00, 0x00, 0xc0, 0xe0, 0xff, 0xf0, 0x7f, 0x30, 0x00, 0x00, 0x00,
   0x00, 0x00, 0x60, 0xe0, 0xff, 0xf0, 0xff, 0x60, 0x00, 0x00, 0x00, 0x00,
   0x00, 0x70, 0xf0, 0xff, 0xf0, 0xff, 0xe0, 0x00, 0x00, 0x00, 0x00, 0x00,
   0x30, 0xf8, 0xff, 0xf0, 0xff, 0xc1, 0x00, 0x00, 0x00, 0x00, 0x00, 0x30,
   0xfc, 0xff, 0xf0, 0xff, 0xc3, 0x00, 0x00, 0x00, 0x00, 0x00, 0x18, 0xfc,
   0xff, 0xf0, 0xff, 0x83, 0x01, 0x00, 0x00, 0x00, 0x00, 0x18, 0xfc, 0xff,
   0xf0, 0xff, 0x87, 0x01, 0x00, 0x00, 0x00, 0x00, 0x18, 0xfe, 0xff, 0xf0,
   0xff, 0x07, 0x01, 0x00, 0x00, 0x00, 0x00, 0x0c, 0xfe, 0xff, 0xf0, 0xff,
   0x07, 0x03, 0x00, 0x00, 0x00, 0x00, 0x0c, 0xfe, 0xff, 0xf0, 0xff, 0x07,
   0x03, 0x00, 0x00, 0x00, 0x00, 0x0c, 0xff, 0xff, 0xf0, 0xff, 0x0f, 0x03,
   0x00, 0x00, 0x00, 0x00, 0x0c, 0xff, 0x7f, 0xe0, 0xff, 0x0f, 0x03, 0x00,
   0x00, 0x00, 0x00, 0x0c, 0xff, 0x3f, 0xc0, 0xff, 0x0f, 0x03, 0x00, 0x00,
   0x00, 0x00, 0x0c, 0xff, 0x1f, 0x80, 0xff, 0x0f, 0x03, 0x00, 0x00, 0x00,
   0x00, 0x0c, 0xff, 0x0f, 0x00, 0xff, 0x0f, 0x03, 0x00, 0x00, 0x00, 0x00,
   0x0c, 0xfe, 0x07, 0x00, 0xfe, 0x07, 0x03, 0x00, 0x00, 0x00, 0x00, 0x0c,
   0xfe, 0x03, 0x00, 0xfc, 0x07, 0x03, 0x00, 0x00, 0x00, 0x00, 0x0c, 0xfe,
   0x01, 0x00, 0xf8, 0x07, 0x03, 0x00, 0x00, 0x00, 0x00, 0x18, 0xfe, 0x80,
   0x10, 0xf0, 0x87, 0x01, 0x00, 0x00, 0x00, 0x00, 0x18, 0x7c, 0xc0, 0x30,
   0xe0, 0x83, 0x01, 0x00, 0x00, 0x00, 0x00, 0x18, 0x3c, 0xe0, 0x70, 0xc0,
   0x83, 0x01, 0x00, 0x00, 0x00, 0x00, 0x30, 0x18, 0xf0, 0xf0, 0x80, 0xc1,
   0x00, 0x00, 0x00, 0x00, 0x00, 0x30, 0x00, 0xf8, 0xf0, 0x01, 0xc0, 0x00,
   0x00, 0x00, 0x00, 0x00, 0x70, 0x00, 0xfc, 0xf0, 0x03, 0xe0, 0x00, 0x00,
   0x00, 0x00, 0x00, 0x60, 0x00, 0xfe, 0xf0, 0x07, 0x60, 0x00, 0x00, 0x00,
   0x00, 0x00, 0xc0, 0x00, 0xff, 0xf0, 0x0f, 0x30, 0x00, 0x00, 0x00, 0x00,
   0x00, 0xc0, 0x81, 0xff, 0xf0, 0x1f, 0x38, 0x00, 0x00, 0x00, 0x00, 0x00,
   0x80, 0x03, 0xff, 0xf0, 0x0f, 0x18, 0x00, 0x00, 0x00, 0x00, 0x00, 0x00,
   0x03, 0xfc, 0xf0, 0x03, 0x0c, 0x00, 0x00, 0x00, 0x00, 0x00, 0x00, 0x0e,
   0xe0, 0x70, 0x00, 0x07, 0x00, 0x00, 0x00, 0x00, 0x00, 0x00, 0x1c, 0x00,
   0x00, 0x80, 0x03, 0x00, 0x00, 0x00, 0x00, 0x00, 0x00, 0x38, 0x00, 0x00,
   0xc0, 0x01, 0x00, 0x00, 0x00, 0x00, 0x00, 0x00, 0xf0, 0x00, 0x00, 0xf0,
   0x00, 0x00, 0x00, 0x00, 0x00, 0x00, 0x00, 0xc0, 0x03, 0x00, 0x3e, 0x00,
   0x00, 0x00, 0x00, 0x00, 0x00, 0x00, 0x80, 0x7f, 0xe0, 0x1f, 0x00, 0x00,
   0x00, 0x00, 0x00, 0x00, 0x00, 0x00, 0xfc, 0xff, 0x03, 0x00, 0x00, 0x00,
   0x00, 0x00, 0x00, 0x00, 0x00, 0xe0, 0x7f, 0x00, 0x00, 0x00, 0x00, 0x00 };
