#define Image_MyAbstract_width 84
#define Image_MyAbstract_height 48
static const unsigned char Image_MyAbstract_bits[] = {
   0x07, 0x54, 0x05, 0x00, 0x00, 0x00, 0x00, 0x00, 0x00, 0x00, 0x0a, 0x05,
   0x54, 0x05, 0x00, 0x00, 0x00, 0x00, 0x00, 0x00, 0x00, 0x05, 0x07, 0x54,
   0x05, 0x00, 0x00, 0x00, 0x00, 0x00, 0x00, 0x01, 0x0a, 0x00, 0x54, 0x05,
   0x00, 0x00, 0xfe, 0x7f, 0x00, 0x80, 0x02, 0x05, 0xff, 0x57, 0x05, 0x00,
   0x00, 0x02, 0x40, 0x00, 0x80, 0x02, 0x00, 0x00, 0x54, 0x05, 0x00, 0x00,
   0x02, 0x40, 0x00, 0x80, 0x02, 0x00, 0xff, 0x57, 0x05, 0x00, 0x00, 0x02,
   0x40, 0x00, 0x80, 0x02, 0x00, 0x00, 0x54, 0x05, 0x00, 0x00, 0x02, 0x40,
   0x00, 0x80, 0x02, 0x00, 0xff, 0x57, 0x05, 0x00, 0x00, 0x02, 0x40, 0x00,
   0x80, 0x02, 0x00, 0x00, 0x54, 0x05, 0x00, 0x00, 0x02, 0x40, 0x00, 0xe0,
   0x0f, 0x00, 0xff, 0xff, 0x0f, 0x00, 0x00, 0x02, 0x40, 0x00, 0x00, 0x01,
   0x00, 0x00, 0x00, 0x00, 0x00, 0xe0, 0xff, 0xff, 0x07, 0x00, 0x01, 0x00,
   0x00, 0x00, 0x00, 0x00, 0x00, 0x04, 0x20, 0x00, 0x00, 0x01, 0x00, 0x00,
   0x00, 0x00, 0x00, 0x00, 0x24, 0x24, 0x00, 0x00, 0x01, 0x00, 0x00, 0x00,
   0x00, 0x00, 0x00, 0x74, 0x2e, 0x00, 0x00, 0x00, 0x00, 0x00, 0x00, 0x00,
   0x00, 0x00, 0xfc, 0x3f, 0x00, 0x00, 0x00, 0x00, 0x00, 0x00, 0x00, 0x00,
   0x00, 0x74, 0x2e, 0x00, 0x00, 0x00, 0x00, 0x00, 0x00, 0x00, 0x00, 0x00,
   0x24, 0x24, 0x00, 0x00, 0x00, 0x00, 0x00, 0x00, 0x00, 0x00, 0x00, 0x04,
   0x20, 0x00, 0x00, 0x00, 0x00, 0x00, 0x00, 0x00, 0x00, 0x00, 0x14, 0x28,
   0x00, 0x00, 0x00, 0x00, 0x00, 0x00, 0x00, 0x00, 0x00, 0x64, 0x26, 0x00,
   0x00, 0x00, 0x00, 0x00, 0x00, 0x00, 0x00, 0x00, 0x88, 0x11, 0x00, 0x00,
   0x00, 0x00, 0x00, 0x00, 0x00, 0x00, 0x00, 0x30, 0x0c, 0x00, 0x00, 0x00,
   0x00, 0x00, 0x00, 0x00, 0x00, 0x00, 0xe0, 0x07, 0x00, 0x00, 0x00, 0x00,
   0x00, 0x00, 0x00, 0x00, 0x00, 0x00, 0x00, 0x00, 0x00, 0x00, 0x00, 0x00,
   0x00, 0x00, 0x00, 0x00, 0x00, 0x00, 0x00, 0x00, 0x00, 0x00, 0x00, 0x00,
   0x01, 0x00, 0x01, 0x00, 0x00, 0x00, 0x00, 0x00, 0x00, 0x00, 0x80, 0x02,
   0x80, 0xfe, 0xff, 0xff, 0xff, 0xff, 0x01, 0x00, 0x00, 0xc0, 0x05, 0x40,
   0x03, 0x00, 0x00, 0x00, 0x00, 0x02, 0x00, 0x00, 0xe0, 0x0b, 0xa0, 0x03,
   0x00, 0x00, 0x00, 0x00, 0x04, 0x00, 0x00, 0xe0, 0x15, 0xd0, 0x03, 0x00,
   0x00, 0x00, 0x00, 0x08, 0x00, 0x00, 0xfc, 0x2e, 0xe8, 0x03, 0x00, 0x00,
   0x00, 0x00, 0x10, 0x00, 0x00, 0xe2, 0x55, 0xf4, 0x03, 0x00, 0x00, 0x00,
   0x00, 0x20, 0x00, 0x00, 0xe2, 0xab, 0xea, 0x03, 0x00, 0x00, 0x00, 0x00,
   0x40, 0x00, 0x00, 0xe2, 0x55, 0xf5, 0x03, 0x00, 0x00, 0x00, 0x00, 0x40,
   0x00, 0x00, 0xe2, 0xae, 0xeb, 0x03, 0x00, 0x00, 0x00, 0x00, 0x40, 0x00,
   0x00, 0xe2, 0x55, 0xf5, 0x03, 0x00, 0x00, 0x00, 0x00, 0x20, 0x00, 0x00,
   0xfc, 0xab, 0xeb, 0x03, 0x00, 0x00, 0x00, 0x00, 0x10, 0x00, 0x00, 0xe0,
   0x55, 0xf5, 0x03, 0x00, 0x00, 0x00, 0x00, 0x08, 0x00, 0x00, 0xe0, 0xab,
   0xeb, 0x03, 0x00, 0x00, 0x00, 0x00, 0x04, 0x00, 0x80, 0xc0, 0x01, 0xc1,
   0x03, 0x00, 0x00, 0x00, 0x00, 0x02, 0x00, 0x40, 0x80, 0x00, 0x81, 0xff,
   0xff, 0xff, 0xff, 0xff, 0x01, 0x00, 0x20, 0x40, 0x00, 0x01, 0x01, 0x00,
   0x00, 0x00, 0x00, 0x00, 0x00, 0x10, 0x20, 0x00, 0x01, 0x02, 0x00, 0x00,
   0x00, 0x00, 0x00, 0x00, 0x08, 0x40, 0x00, 0x01, 0x04, 0x00, 0x00, 0x00,
   0x00, 0x00, 0x0f, 0x04, 0x80, 0xf8, 0x3f, 0x02, 0x00, 0x00, 0x00, 0x00,
   0x00, 0x0f, 0x02, 0x00, 0x05, 0x40, 0x01, 0x00, 0x00, 0x00, 0x00, 0x00,
   0x0f, 0x01, 0x00, 0x02, 0x80, 0x00, 0x00, 0x00, 0x00, 0x00, 0x00, 0x0f };
