#define rolling_stones_P_width 84
#define rolling_stones_P_height 48
static const unsigned char rolling_stones_P_bits[] = {
   0x00, 0x00, 0x00, 0x00, 0x00, 0x00, 0x00, 0x00, 0x00, 0x00, 0x00, 0x00,
   0x00, 0x00, 0x00, 0x05, 0x00, 0x00, 0x00, 0x00, 0x00, 0x00, 0x00, 0x00,
   0x00, 0x00, 0x0f, 0x00, 0x00, 0x00, 0x00, 0x00, 0x00, 0x00, 0x00, 0x00,
   0x00, 0x15, 0x00, 0x00, 0x00, 0x00, 0x00, 0x00, 0x00, 0x00, 0x00, 0xc0,
   0x3f, 0x00, 0x00, 0x00, 0x00, 0x00, 0x00, 0x00, 0x00, 0x00, 0x40, 0x55,
   0x00, 0x00, 0x00, 0x00, 0x00, 0x00, 0x00, 0x00, 0x00, 0xb0, 0xbf, 0x00,
   0x00, 0x00, 0x00, 0x00, 0x00, 0x00, 0x00, 0x00, 0x54, 0x5d, 0x01, 0x00,
   0x00, 0x00, 0x00, 0x00, 0x00, 0x00, 0x00, 0xff, 0xff, 0x07, 0x00, 0x00,
   0x00, 0x00, 0x00, 0x00, 0x00, 0x40, 0x55, 0x57, 0x15, 0x00, 0x00, 0x00,
   0x00, 0x00, 0x00, 0x00, 0xfc, 0xff, 0xff, 0x7f, 0x00, 0x00, 0x00, 0x00,
   0x00, 0x00, 0x00, 0x54, 0x55, 0xd5, 0x55, 0x01, 0x00, 0x00, 0x00, 0x00,
   0x00, 0x00, 0xe3, 0x7f, 0xfe, 0xff, 0x07, 0x00, 0x00, 0x00, 0x00, 0x00,
   0x00, 0x41, 0x15, 0x54, 0x57, 0x15, 0x00, 0x00, 0x00, 0x00, 0x00, 0x00,
   0xe1, 0x0f, 0xfe, 0xbf, 0x7f, 0x00, 0x00, 0x00, 0x00, 0x00, 0x00, 0x51,
   0x05, 0x55, 0x55, 0x55, 0x01, 0x00, 0x00, 0x00, 0x00, 0x00, 0xf3, 0x87,
   0xdf, 0xff, 0xff, 0x03, 0x00, 0x00, 0x00, 0x00, 0x00, 0x41, 0x01, 0x15,
   0xd5, 0x57, 0x05, 0x00, 0x00, 0x00, 0x00, 0x00, 0xf6, 0x03, 0x3e, 0xfe,
   0xff, 0x0f, 0x00, 0x00, 0x00, 0x00, 0x00, 0x54, 0x01, 0x56, 0x50, 0x75,
   0x05, 0x00, 0x00, 0x00, 0x00, 0x00, 0xfc, 0x07, 0xfe, 0xf0, 0xff, 0x1f,
   0x00, 0x00, 0x00, 0x00, 0x00, 0x50, 0x05, 0x56, 0x41, 0x55, 0x1d, 0x00,
   0x00, 0x00, 0x00, 0x00, 0xb0, 0x07, 0xbe, 0x07, 0xbe, 0x1f, 0x00, 0x00,
   0x00, 0x00, 0x00, 0x54, 0x05, 0x57, 0x15, 0x50, 0x55, 0x00, 0x00, 0x00,
   0x00, 0x00, 0xf3, 0x8f, 0xff, 0x7f, 0x00, 0xff, 0x00, 0x00, 0x00, 0x00,
   0x00, 0x41, 0x05, 0x57, 0x55, 0x01, 0x54, 0x01, 0x00, 0x00, 0x00, 0x80,
   0xe1, 0x0f, 0xff, 0xff, 0x0f, 0xf0, 0x03, 0x00, 0x00, 0x00, 0x00, 0x51,
   0x05, 0x5f, 0x55, 0x15, 0x40, 0x05, 0x00, 0x00, 0x00, 0x80, 0xf1, 0x03,
   0xff, 0xff, 0xff, 0xc0, 0x07, 0x00, 0x00, 0x00, 0x00, 0x51, 0x01, 0x75,
   0x55, 0x55, 0x41, 0x0d, 0x00, 0x00, 0x00, 0x00, 0xf3, 0x83, 0xff, 0xbf,
   0xff, 0xbf, 0x0f, 0x00, 0x00, 0x00, 0x00, 0x55, 0xc1, 0xd5, 0x55, 0x55,
   0x55, 0x15, 0x00, 0x00, 0x00, 0x00, 0xfe, 0xc3, 0xff, 0xff, 0xff, 0xff,
   0x1f, 0x00, 0x00, 0x00, 0x00, 0x54, 0xc1, 0x15, 0x5d, 0x55, 0x55, 0x15,
   0x00, 0x00, 0x00, 0x00, 0xf8, 0xe7, 0x3f, 0xff, 0xff, 0xff, 0x1f, 0x00,
   0x00, 0x00, 0x00, 0x50, 0xe5, 0x17, 0xd4, 0x55, 0x55, 0x15, 0x00, 0x00,
   0x00, 0x00, 0xc0, 0xff, 0x7f, 0xf8, 0xff, 0xff, 0x1f, 0x00, 0x00, 0x00,
   0x00, 0x00, 0xf5, 0x57, 0x40, 0x55, 0x55, 0x15, 0x00, 0x00, 0x00, 0x00,
   0x00, 0xfe, 0xbf, 0x83, 0xbf, 0xbf, 0x0f, 0x00, 0x00, 0x00, 0x00, 0x00,
   0xd0, 0x5f, 0x05, 0x54, 0x55, 0x05, 0x00, 0x00, 0x00, 0x00, 0x00, 0xf0,
   0xff, 0x1f, 0xc0, 0xff, 0x07, 0x00, 0x00, 0x00, 0x00, 0x00, 0x40, 0x55,
   0x55, 0x00, 0x55, 0x05, 0x00, 0x00, 0x00, 0x00, 0x00, 0xc0, 0x7f, 0xff,
   0x81, 0xff, 0x03, 0x00, 0x00, 0x00, 0x00, 0x00, 0x40, 0x15, 0x54, 0x55,
   0x55, 0x01, 0x00, 0x00, 0x00, 0x00, 0x00, 0x80, 0x07, 0xf0, 0xff, 0xff,
   0x00, 0x00, 0x00, 0x00, 0x00, 0x00, 0x00, 0x01, 0x40, 0x55, 0x55, 0x00,
   0x00, 0x00, 0x00, 0x00, 0x00, 0x00, 0x00, 0x00, 0xff, 0x1f, 0x00, 0x00,
   0x00, 0x00, 0x00, 0x00, 0x00, 0x00, 0x00, 0x50, 0x01, 0x00, 0x00, 0x00 };
